<svg id="svg" version="1.1" xmlns="http://www.w3.org/2000/svg" xmlns:xlink="http://www.w3.org/1999/xlink" width="400" height="388.49407783417934" viewBox="0, 0, 400,388.49407783417934"><g id="svgg"><path id="path0" d="M163.477 14.089 C 163.261 14.778,162.936 18.036,162.498 23.907 C 161.642 35.378,161.316 39.370,160.747 45.287 C 160.131 51.690,159.644 57.478,158.983 66.278 C 158.579 71.656,157.698 82.164,157.061 89.213 C 156.640 93.865,156.130 99.978,155.505 107.872 C 154.409 121.701,153.884 127.518,153.538 129.685 C 153.329 130.993,153.158 133.377,153.158 134.983 C 153.158 139.253,153.315 139.208,145.279 137.257 C 141.595 136.363,137.794 135.460,136.832 135.252 C 135.870 135.044,133.683 134.513,131.973 134.072 C 130.262 133.631,128.120 133.109,127.211 132.913 C 126.302 132.717,124.815 132.395,123.907 132.198 C 118.439 131.013,116.252 130.481,114.869 129.999 C 114.014 129.701,112.976 129.455,112.564 129.452 C 112.152 129.449,111.277 129.285,110.620 129.087 C 109.964 128.890,108.552 128.544,107.483 128.318 C 106.414 128.093,102.566 127.210,98.931 126.356 C 95.296 125.501,91.098 124.516,89.602 124.166 C 88.105 123.817,86.356 123.386,85.714 123.210 C 83.616 122.635,81.479 122.127,79.106 121.639 C 77.823 121.376,75.462 120.825,73.858 120.415 C 70.357 119.519,69.170 119.244,65.112 118.388 C 63.401 118.027,60.603 117.377,58.892 116.943 C 57.182 116.509,52.809 115.460,49.174 114.612 C 45.539 113.763,41.866 112.896,41.011 112.684 C 40.155 112.473,38.756 112.153,37.901 111.975 C 34.700 111.306,32.434 110.798,31.664 110.577 C 30.939 110.369,30.674 110.950,28.610 117.274 C 25.914 125.535,25.280 127.444,24.891 128.474 C 24.730 128.902,24.413 129.864,24.187 130.612 C 22.926 134.795,15.256 158.404,14.779 159.572 C 14.604 160.000,14.069 161.662,13.589 163.265 C 13.110 164.869,11.649 169.433,10.343 173.409 L 7.969 180.637 9.913 181.435 C 14.413 183.281,19.392 185.383,21.008 186.119 C 21.961 186.553,24.052 187.430,25.656 188.068 C 27.259 188.706,29.534 189.664,30.709 190.198 C 31.885 190.731,36.958 192.863,41.983 194.937 C 47.007 197.010,52.167 199.196,53.450 199.796 C 54.733 200.395,57.007 201.358,58.503 201.936 C 60.000 202.514,61.399 203.116,61.613 203.274 C 61.827 203.432,63.489 204.142,65.306 204.851 C 67.123 205.560,69.488 206.538,70.561 207.024 C 71.633 207.511,73.405 208.261,74.497 208.692 C 76.764 209.585,79.952 210.973,80.947 211.499 C 81.318 211.696,81.822 211.856,82.066 211.856 C 82.309 211.856,83.755 212.450,85.278 213.176 C 92.163 216.457,91.389 216.561,96.472 211.662 C 103.303 205.078,113.396 196.217,118.509 192.313 C 119.286 191.720,120.263 190.949,120.679 190.599 C 125.415 186.623,143.582 174.041,149.466 170.662 C 150.107 170.294,151.629 169.353,152.848 168.572 C 154.067 167.792,155.177 167.153,155.315 167.153 C 155.453 167.153,156.057 166.803,156.658 166.375 C 157.258 165.947,158.860 164.961,160.216 164.184 C 165.892 160.933,171.359 157.893,173.178 156.976 C 174.247 156.437,176.958 155.037,179.203 153.864 C 182.739 152.017,192.130 147.520,196.307 145.672 C 199.491 144.265,201.605 143.342,202.332 143.044 C 202.760 142.869,204.072 142.299,205.248 141.779 C 206.424 141.258,210.185 139.733,213.605 138.390 C 217.026 137.047,221.054 135.458,222.557 134.860 C 224.059 134.261,226.159 133.486,227.222 133.137 C 228.285 132.789,229.679 132.269,230.321 131.982 C 230.962 131.695,232.799 131.016,234.402 130.473 C 236.006 129.930,239.302 128.777,241.727 127.911 C 244.152 127.045,246.234 126.336,246.353 126.336 C 246.569 126.336,246.379 122.988,245.659 114.091 C 245.451 111.526,245.100 107.065,244.878 104.179 C 244.020 92.988,243.782 90.167,243.173 83.965 C 242.588 77.999,242.337 75.010,241.394 62.779 C 241.196 60.214,240.854 56.059,240.634 53.547 C 240.010 46.432,239.544 40.860,238.903 32.847 C 238.421 26.823,237.797 19.316,237.385 14.577 C 237.301 13.604,163.783 13.119,163.477 14.089 M363.654 110.802 C 362.585 110.972,360.136 111.312,358.212 111.556 C 351.087 112.460,333.143 115.781,324.393 117.816 C 323.537 118.015,322.051 118.343,321.088 118.544 C 318.359 119.117,312.682 120.593,304.568 122.842 C 300.341 124.014,290.788 126.992,285.520 128.780 C 282.099 129.941,277.901 131.364,276.190 131.941 C 274.480 132.518,272.493 133.260,271.774 133.590 C 271.055 133.919,269.218 134.624,267.692 135.157 C 266.166 135.690,264.218 136.444,263.362 136.833 C 262.507 137.222,260.429 138.088,258.744 138.757 C 257.060 139.426,254.574 140.491,253.221 141.124 C 251.868 141.757,250.667 142.274,250.552 142.274 C 250.437 142.274,248.987 142.904,247.329 143.675 C 245.671 144.445,243.178 145.599,241.788 146.238 C 236.291 148.766,222.769 155.641,218.465 158.097 C 217.716 158.524,215.267 159.893,213.022 161.141 C 210.777 162.388,208.503 163.701,207.969 164.059 C 207.434 164.416,206.210 165.153,205.248 165.695 C 196.808 170.449,180.040 181.644,169.923 189.278 C 167.492 191.113,165.043 192.958,164.481 193.378 C 163.919 193.797,161.381 195.809,158.840 197.848 C 156.299 199.887,153.563 202.080,152.759 202.721 C 140.606 212.425,115.963 236.339,106.317 247.788 C 105.248 249.057,103.147 251.506,101.649 253.230 C 99.221 256.024,96.534 259.246,94.850 261.383 C 94.529 261.790,93.732 262.752,93.078 263.521 C 92.425 264.289,91.550 265.379,91.135 265.942 C 90.719 266.506,88.293 269.742,85.744 273.134 C 83.194 276.525,80.658 279.912,80.107 280.659 C 79.052 282.092,78.835 282.404,75.259 287.658 C 74.022 289.475,72.770 291.312,72.476 291.740 C 71.676 292.902,68.341 298.029,66.660 300.680 C 62.948 306.533,53.644 322.427,53.644 322.913 C 53.644 322.987,53.207 323.740,52.672 324.587 C 51.615 326.263,51.463 326.919,52.132 326.919 C 52.370 326.919,53.690 327.707,55.066 328.669 C 56.443 329.631,57.657 330.418,57.765 330.418 C 57.945 330.418,60.506 332.050,67.250 336.461 C 72.096 339.631,78.748 343.891,82.993 346.544 C 85.345 348.014,87.630 349.535,88.072 349.924 C 88.513 350.313,88.988 350.632,89.127 350.632 C 89.266 350.632,91.179 351.794,93.378 353.215 C 95.577 354.636,98.251 356.364,99.320 357.054 C 100.389 357.745,102.582 359.163,104.195 360.205 C 105.807 361.247,109.184 363.411,111.698 365.015 C 114.213 366.618,118.488 369.373,121.198 371.137 C 123.909 372.901,126.169 374.344,126.220 374.344 C 126.272 374.344,127.921 375.399,129.885 376.688 C 134.237 379.547,133.718 379.744,136.623 374.132 C 140.362 366.909,142.573 362.844,145.494 357.823 C 148.938 351.904,151.766 347.270,152.635 346.125 C 153.137 345.463,153.547 344.812,153.547 344.678 C 153.547 344.483,161.266 332.870,163.645 329.485 C 190.533 291.238,229.198 254.462,267.447 230.754 C 269.476 229.496,271.836 228.009,272.691 227.450 C 274.668 226.157,279.301 223.494,290.379 217.286 C 293.935 215.293,312.376 206.234,315.258 205.065 C 316.220 204.675,318.253 203.769,319.776 203.052 C 321.299 202.336,322.744 201.749,322.988 201.749 C 323.232 201.749,323.735 201.589,324.106 201.393 C 324.767 201.045,325.933 200.536,329.057 199.230 C 329.913 198.873,331.399 198.320,332.362 198.001 C 333.324 197.682,334.636 197.184,335.277 196.894 C 336.506 196.340,344.922 193.398,349.854 191.799 C 351.458 191.280,354.431 190.311,356.463 189.647 C 358.494 188.983,361.467 188.099,363.071 187.682 C 364.674 187.265,366.511 186.768,367.153 186.577 C 367.794 186.387,372.692 185.180,378.037 183.895 C 383.382 182.611,388.501 181.380,389.413 181.159 C 390.324 180.939,391.436 180.758,391.884 180.758 C 392.417 180.758,392.626 180.572,392.491 180.221 C 392.378 179.925,391.938 178.569,391.515 177.208 C 391.091 175.847,389.832 171.934,388.716 168.513 C 387.601 165.092,386.553 161.769,386.387 161.127 C 386.222 160.486,385.567 158.474,384.932 156.657 C 384.297 154.840,383.556 152.566,383.286 151.603 C 383.016 150.641,382.575 149.329,382.306 148.688 C 382.037 148.047,381.433 146.210,380.963 144.606 C 380.494 143.003,379.949 141.387,379.753 141.016 C 379.558 140.645,379.397 140.074,379.397 139.747 C 379.397 139.421,379.233 138.850,379.033 138.479 C 378.735 137.928,374.718 125.536,373.081 120.117 C 372.855 119.368,372.451 118.231,372.184 117.590 C 371.917 116.948,371.290 115.068,370.790 113.411 L 369.883 110.398 367.740 110.445 C 366.562 110.470,364.723 110.631,363.654 110.802 M282.201 240.753 C 274.092 244.984,254.191 263.040,244.643 274.830 C 244.383 275.151,243.319 276.463,242.278 277.745 C 234.846 286.905,226.777 299.693,222.946 308.381 C 222.074 310.358,221.806 309.977,233.236 322.969 C 235.054 325.035,238.902 329.507,241.788 332.907 C 244.675 336.307,248.435 340.685,250.146 342.636 C 251.856 344.588,253.955 347.036,254.810 348.077 C 255.666 349.118,256.548 350.162,256.770 350.398 C 257.122 350.770,264.620 359.438,269.583 365.209 C 270.502 366.278,273.152 369.348,275.472 372.030 C 277.791 374.713,280.245 377.569,280.924 378.376 C 281.929 379.572,282.290 379.773,282.867 379.462 C 283.494 379.125,288.384 375.649,289.407 374.814 C 289.621 374.639,291.247 373.456,293.021 372.185 C 294.795 370.914,297.205 369.174,298.377 368.319 C 299.550 367.464,302.472 365.374,304.871 363.676 C 307.269 361.978,309.320 360.477,309.427 360.341 C 309.534 360.205,311.895 358.458,314.674 356.457 C 317.454 354.457,322.150 351.060,325.110 348.908 C 328.070 346.756,330.983 344.645,331.584 344.218 C 339.013 338.929,341.691 336.896,341.691 336.544 C 341.691 336.313,340.619 334.359,339.308 332.202 C 337.997 330.045,336.617 327.755,336.242 327.114 C 335.866 326.472,333.593 322.711,331.190 318.756 C 328.787 314.801,326.520 311.040,326.152 310.398 C 325.784 309.757,324.844 308.235,324.063 307.016 C 323.282 305.797,322.643 304.725,322.643 304.635 C 322.643 304.545,321.156 302.091,319.339 299.182 C 317.522 296.272,316.035 293.807,316.035 293.703 C 316.035 293.598,315.248 292.296,314.286 290.809 C 313.324 289.322,312.536 287.989,312.536 287.848 C 312.536 287.706,312.036 286.862,311.423 285.972 C 310.476 284.596,304.571 274.842,302.441 271.137 C 302.072 270.496,301.132 268.973,300.351 267.754 C 299.570 266.535,298.931 265.439,298.931 265.319 C 298.931 265.198,298.344 264.184,297.626 263.065 C 294.506 258.203,292.323 254.641,292.323 254.416 C 292.323 254.282,291.824 253.442,291.214 252.548 C 290.605 251.654,289.662 250.136,289.120 249.174 C 284.463 240.916,283.690 239.976,282.201 240.753 " stroke="none" fill="#04ccb4" fill-rule="evenodd"></path><path id="path1" d="M0.000 141.108 L 0.000 282.216 38.484 282.216 C 63.518 282.216,76.968 282.350,76.968 282.599 C 76.968 283.008,76.082 284.388,71.623 290.929 C 70.073 293.203,68.805 295.234,68.805 295.442 C 68.805 295.651,68.667 295.821,68.500 295.821 C 68.332 295.821,67.867 296.390,67.466 297.085 C 67.066 297.779,65.694 299.973,64.417 301.959 C 63.141 303.945,62.177 305.650,62.275 305.747 C 62.373 305.845,64.331 302.996,66.627 299.416 C 72.506 290.247,83.190 274.550,84.498 273.159 C 84.739 272.902,86.249 270.949,87.852 268.820 C 90.300 265.569,92.779 262.470,98.558 255.438 C 98.977 254.928,100.719 252.909,102.430 250.951 C 104.140 248.992,106.211 246.611,107.031 245.658 C 114.871 236.556,133.952 217.578,142.826 210.055 C 144.306 208.801,146.930 206.540,148.657 205.031 C 152.827 201.389,165.313 191.491,171.040 187.289 C 173.090 185.784,179.025 181.560,180.238 180.742 C 192.173 172.691,204.924 164.431,205.416 164.431 C 205.530 164.431,206.719 163.763,208.059 162.945 C 210.470 161.475,213.155 159.954,217.298 157.710 C 218.474 157.074,220.573 155.911,221.963 155.127 C 224.550 153.668,237.184 147.400,242.760 144.809 C 244.470 144.014,246.744 142.956,247.813 142.457 C 252.378 140.327,263.593 135.714,270.165 133.264 C 271.341 132.826,272.846 132.229,273.508 131.938 C 275.379 131.116,294.279 124.910,298.890 123.603 C 301.157 122.961,304.412 122.017,306.122 121.507 C 307.833 120.996,310.807 120.202,312.731 119.742 C 317.667 118.561,317.559 118.588,319.922 117.935 C 323.837 116.854,339.471 113.648,345.190 112.755 C 346.793 112.504,348.980 112.140,350.049 111.946 C 356.328 110.808,362.719 109.904,367.787 109.438 C 370.401 109.197,370.483 109.272,371.627 112.925 C 372.096 114.422,373.057 117.396,373.762 119.534 C 375.181 123.836,378.794 135.092,379.438 137.221 C 379.665 137.969,380.259 139.718,380.759 141.108 C 381.259 142.498,382.052 144.947,382.522 146.550 C 382.992 148.154,383.597 149.990,383.867 150.632 C 384.138 151.273,384.539 152.410,384.758 153.158 C 385.565 155.906,390.013 169.755,390.877 172.206 C 392.234 176.056,393.392 179.884,393.392 180.518 C 393.392 181.233,392.050 181.671,386.200 182.866 C 383.635 183.390,378.999 184.459,375.899 185.242 C 372.799 186.024,369.650 186.801,368.902 186.967 C 368.154 187.133,367.279 187.362,366.958 187.475 C 366.152 187.760,359.719 189.643,357.823 190.150 C 356.968 190.378,355.918 190.709,355.491 190.884 C 355.063 191.060,352.702 191.839,350.243 192.615 C 343.373 194.784,330.424 199.526,326.191 201.425 C 325.255 201.844,323.598 202.539,322.507 202.969 C 318.992 204.355,310.973 207.971,304.783 210.962 C 297.187 214.632,284.921 221.125,281.485 223.294 C 280.612 223.845,279.830 224.295,279.747 224.295 C 279.663 224.295,277.692 225.456,275.366 226.875 C 273.040 228.293,270.301 229.953,269.280 230.564 C 268.259 231.174,266.947 232.000,266.365 232.399 C 265.783 232.797,263.382 234.404,261.030 235.969 C 248.774 244.126,236.319 253.623,224.265 264.003 C 218.394 269.059,216.692 270.621,207.597 279.300 C 193.886 292.384,179.853 308.493,168.144 324.587 C 166.666 326.618,164.809 329.155,164.017 330.224 C 161.222 333.996,148.882 353.030,148.882 353.570 C 148.882 353.639,147.946 355.237,146.802 357.120 C 144.251 361.318,140.200 368.722,137.094 374.865 C 135.814 377.397,134.512 379.566,134.201 379.686 C 133.466 379.968,133.198 379.809,120.681 371.658 C 119.174 370.677,116.686 369.086,115.152 368.124 C 113.618 367.162,107.941 363.528,102.537 360.049 C 97.133 356.569,91.312 352.827,89.602 351.733 C 87.891 350.639,85.792 349.269,84.937 348.689 C 80.998 346.016,71.527 340.183,71.537 340.436 C 71.543 340.592,73.336 341.845,75.521 343.221 C 77.707 344.596,81.043 346.739,82.936 347.983 C 84.829 349.226,86.456 350.243,86.551 350.243 C 86.646 350.243,87.721 350.920,88.940 351.747 C 90.159 352.575,92.381 354.044,93.878 355.012 C 103.706 361.371,105.725 362.664,107.289 363.604 C 108.251 364.182,109.475 364.975,110.010 365.366 C 110.544 365.757,112.731 367.173,114.869 368.513 C 120.163 371.831,122.542 373.365,125.821 375.575 C 127.355 376.608,128.719 377.454,128.852 377.454 C 128.986 377.454,130.122 378.178,131.377 379.063 C 133.975 380.895,134.536 380.852,135.582 378.736 C 136.771 376.333,141.313 367.713,142.608 365.403 C 143.268 364.227,144.118 362.653,144.498 361.905 C 144.878 361.156,145.321 360.486,145.481 360.415 C 145.641 360.343,145.773 360.128,145.773 359.936 C 145.773 359.744,146.385 358.630,147.133 357.461 C 147.881 356.291,148.494 355.225,148.494 355.092 C 148.494 354.958,149.273 353.645,150.224 352.174 C 151.176 350.702,152.245 348.939,152.598 348.255 C 152.952 347.571,153.570 346.658,153.973 346.227 C 154.375 345.795,154.817 345.078,154.956 344.635 C 155.094 344.192,155.314 343.741,155.446 343.635 C 155.578 343.528,155.860 343.139,156.074 342.770 C 156.677 341.730,163.404 331.803,163.653 331.584 C 163.775 331.477,164.523 330.401,165.315 329.193 C 166.107 327.984,167.102 326.585,167.527 326.083 C 167.951 325.581,169.731 323.246,171.480 320.894 C 174.841 316.378,176.442 314.279,178.036 312.300 C 178.571 311.636,179.346 310.674,179.758 310.162 C 180.170 309.651,181.569 307.993,182.868 306.478 C 184.166 304.964,186.016 302.786,186.978 301.640 C 187.940 300.493,189.077 299.191,189.504 298.746 C 189.932 298.301,191.681 296.381,193.392 294.478 C 195.102 292.576,198.426 289.037,200.777 286.616 L 205.053 282.212 220.829 282.214 C 229.506 282.215,236.708 282.319,236.835 282.445 C 236.961 282.572,236.447 283.484,235.692 284.473 C 233.976 286.721,228.571 294.887,228.571 295.231 C 228.571 295.372,228.069 296.218,227.454 297.112 C 225.658 299.725,221.186 308.886,221.186 309.952 C 221.186 310.615,222.155 312.037,224.198 314.376 C 225.855 316.272,228.086 318.853,229.155 320.111 C 230.224 321.369,231.885 323.265,232.847 324.324 C 233.810 325.383,234.851 326.619,235.163 327.071 C 235.474 327.522,237.577 329.990,239.835 332.556 C 242.094 335.121,245.512 339.057,247.430 341.302 C 249.349 343.547,251.292 345.821,251.749 346.356 C 252.205 346.890,253.956 348.914,255.638 350.854 C 257.321 352.794,259.485 355.310,260.447 356.446 C 261.409 357.582,263.428 359.931,264.934 361.666 C 271.166 368.845,275.116 373.426,275.826 374.299 C 281.970 381.853,282.890 382.167,286.957 378.099 C 287.245 377.811,288.177 377.117,289.027 376.557 C 291.169 375.147,292.101 374.381,291.906 374.190 C 291.814 374.100,289.735 375.498,287.285 377.296 C 281.998 381.175,282.153 381.157,279.689 378.156 C 278.620 376.854,275.760 373.496,273.332 370.693 C 270.905 367.891,268.541 365.160,268.079 364.626 C 265.613 361.774,249.349 342.875,244.160 336.832 C 240.856 332.983,237.528 329.126,236.763 328.259 C 235.999 327.392,234.937 326.166,234.402 325.535 C 233.868 324.903,230.763 321.294,227.502 317.514 C 220.676 309.601,221.017 310.645,223.528 305.361 C 233.016 285.394,256.264 257.716,273.664 245.671 C 274.412 245.153,275.273 244.487,275.576 244.192 C 276.531 243.263,283.081 239.067,283.576 239.067 C 284.003 239.067,285.449 241.176,287.573 244.898 C 288.000 245.646,289.688 248.445,291.326 251.118 C 292.963 253.790,296.145 259.038,298.397 262.779 C 300.649 266.521,303.467 271.156,304.660 273.081 C 306.736 276.431,308.373 279.205,310.509 282.993 C 312.184 285.965,312.306 286.171,313.605 288.197 C 314.300 289.280,314.869 290.031,314.869 289.865 C 314.869 289.399,313.912 287.655,312.377 285.325 C 311.610 284.159,310.982 282.983,310.982 282.711 C 310.982 282.313,319.717 282.216,355.491 282.216 L 400.000 282.216 400.000 141.108 L 400.000 0.000 200.000 0.000 L 0.000 0.000 0.000 141.108 M237.792 13.530 C 238.089 13.718,238.416 15.724,238.665 18.869 C 238.884 21.640,239.240 25.918,239.455 28.377 C 239.671 30.836,240.032 35.384,240.258 38.484 C 240.944 47.912,241.319 52.394,241.965 58.892 C 242.695 66.225,243.012 70.067,244.501 89.602 C 244.680 91.953,245.111 96.764,245.457 100.292 C 247.105 117.071,247.645 126.033,247.048 126.660 C 246.776 126.946,244.651 127.845,242.325 128.660 C 239.998 129.474,236.259 130.782,234.014 131.566 C 231.769 132.350,229.582 133.155,229.155 133.356 C 228.727 133.556,226.978 134.230,225.267 134.853 C 220.256 136.679,212.282 139.783,209.135 141.133 C 207.532 141.820,205.870 142.516,205.442 142.678 C 203.690 143.341,199.196 145.333,194.842 147.375 C 193.074 148.204,191.543 148.882,191.439 148.882 C 191.135 148.882,174.604 157.140,171.623 158.781 C 170.126 159.605,167.705 160.951,166.243 161.772 C 164.781 162.593,163.534 163.265,163.473 163.265 C 163.412 163.265,161.055 164.665,158.236 166.375 C 155.416 168.086,153.031 169.485,152.935 169.485 C 152.839 169.485,151.494 170.303,149.947 171.302 C 148.399 172.301,145.996 173.841,144.606 174.724 C 143.217 175.607,141.642 176.626,141.108 176.990 C 140.573 177.353,139.261 178.232,138.192 178.944 C 135.673 180.621,126.962 186.834,125.022 188.338 C 114.783 196.276,103.802 205.734,96.025 213.314 C 91.987 217.249,91.986 217.249,89.823 216.146 C 89.000 215.726,86.558 214.678,84.396 213.817 C 82.234 212.955,80.159 212.070,79.785 211.850 C 79.412 211.630,77.400 210.754,75.316 209.904 C 69.548 207.551,64.486 205.446,62.974 204.773 C 62.225 204.439,60.826 203.869,59.864 203.506 C 58.902 203.142,57.065 202.357,55.782 201.762 C 54.500 201.166,52.051 200.110,50.340 199.415 C 44.255 196.943,40.208 195.250,38.453 194.444 C 37.473 193.994,35.790 193.279,34.711 192.854 C 32.466 191.969,29.277 190.580,28.285 190.056 C 27.914 189.859,27.431 189.699,27.211 189.699 C 26.992 189.699,25.547 189.108,23.999 188.387 C 22.452 187.665,19.786 186.509,18.076 185.818 C 10.716 182.846,8.329 181.824,7.872 181.450 C 6.950 180.694,6.914 180.827,12.996 162.293 C 13.908 159.514,15.149 155.666,15.754 153.741 C 16.358 151.817,16.975 149.981,17.125 149.660 C 17.275 149.339,17.580 148.465,17.802 147.716 C 18.626 144.951,24.177 127.670,24.483 126.919 C 24.657 126.492,25.187 124.830,25.660 123.226 C 26.134 121.623,26.741 119.786,27.010 119.145 C 27.279 118.503,27.722 117.191,27.994 116.229 C 29.978 109.220,30.145 109.039,33.774 109.989 C 36.607 110.730,43.386 112.402,44.898 112.733 C 48.617 113.547,60.836 116.410,65.112 117.469 C 70.054 118.693,71.701 119.070,74.830 119.691 C 75.899 119.903,78.523 120.539,80.661 121.103 C 84.404 122.091,85.941 122.450,89.504 123.172 C 91.588 123.595,110.903 128.139,112.731 128.637 C 113.479 128.841,114.922 129.194,115.938 129.422 C 120.426 130.426,121.615 130.699,123.810 131.231 C 125.092 131.542,126.754 131.956,127.502 132.152 C 128.251 132.347,129.694 132.693,130.709 132.920 C 134.933 133.865,136.014 134.120,139.164 134.912 C 142.733 135.809,143.608 136.011,148.211 136.997 C 152.607 137.939,152.046 139.715,153.541 120.117 C 154.472 107.904,154.736 104.763,155.309 99.125 C 155.645 95.811,156.081 91.001,156.278 88.435 C 156.475 85.870,156.810 81.497,157.023 78.717 C 157.537 71.999,158.119 64.943,158.609 59.475 C 159.429 50.328,160.391 38.680,160.926 31.434 C 161.125 28.732,161.465 24.621,161.682 22.299 C 161.899 19.976,162.145 17.139,162.229 15.994 C 162.318 14.788,162.609 13.768,162.921 13.570 C 163.586 13.149,237.131 13.110,237.792 13.530 M318.578 296.501 C 320.604 299.869,322.429 302.886,322.634 303.207 C 322.839 303.528,325.441 307.813,328.416 312.731 C 331.391 317.648,335.770 324.871,338.147 328.782 C 340.524 332.692,342.468 336.166,342.468 336.500 C 342.468 337.206,342.158 337.461,334.899 342.740 C 331.900 344.921,328.397 347.473,327.114 348.412 C 325.831 349.351,321.545 352.450,317.590 355.298 C 313.635 358.145,309.786 360.943,309.038 361.515 C 308.290 362.087,305.403 364.181,302.624 366.169 C 295.620 371.179,292.325 373.699,292.523 373.896 C 292.615 373.988,293.333 373.558,294.119 372.941 C 294.905 372.323,296.648 371.030,297.992 370.068 C 303.162 366.368,309.432 361.823,314.286 358.256 C 317.065 356.213,321.482 353.006,324.100 351.129 C 326.719 349.252,329.448 347.279,330.166 346.744 C 330.884 346.210,333.028 344.653,334.929 343.286 C 336.831 341.918,338.474 340.674,338.581 340.522 C 338.688 340.369,339.300 339.973,339.942 339.642 C 340.583 339.310,341.587 338.535,342.173 337.918 L 343.239 336.797 342.068 334.540 C 341.424 333.299,340.376 331.526,339.739 330.600 C 339.102 329.675,338.581 328.808,338.581 328.674 C 338.581 328.541,337.728 327.085,336.685 325.440 C 335.643 323.795,333.872 320.875,332.750 318.950 C 331.628 317.026,330.386 314.984,329.990 314.411 C 329.594 313.839,328.940 312.789,328.537 312.079 C 328.135 311.368,326.119 308.018,324.058 304.634 C 321.997 301.250,320.311 298.377,320.311 298.251 C 320.311 298.124,320.061 297.744,319.755 297.406 C 319.449 297.068,318.966 296.354,318.682 295.820 C 317.438 293.482,315.441 290.379,315.179 290.379 C 315.022 290.379,316.552 293.134,318.578 296.501 M60.931 307.775 C 60.390 308.576,59.518 310.019,58.993 310.982 C 58.467 311.944,57.573 313.411,57.007 314.243 C 56.440 315.074,55.977 315.922,55.977 316.126 C 55.977 316.331,55.644 316.965,55.238 317.535 C 53.930 319.373,50.534 325.850,50.543 326.492 C 50.550 327.035,53.173 329.252,53.809 329.252 C 53.938 329.252,55.397 330.161,57.051 331.272 C 62.121 334.677,63.037 335.274,67.006 337.763 C 69.117 339.087,70.903 340.111,70.975 340.039 C 71.048 339.966,67.484 337.566,63.056 334.704 C 58.628 331.842,54.104 328.914,53.003 328.198 C 50.798 326.763,50.738 326.431,52.208 323.810 C 52.628 323.061,53.941 320.700,55.126 318.562 C 56.311 316.424,58.187 313.178,59.295 311.349 C 61.652 307.459,62.282 306.317,62.068 306.317 C 61.983 306.317,61.471 306.973,60.931 307.775 " stroke="none" fill="#dbf4f4" fill-rule="evenodd"></path><path id="path2" d="M0.000 335.471 L 0.000 388.727 200.000 388.727 L 400.000 388.727 400.000 335.471 L 400.000 282.216 355.491 282.216 C 320.141 282.216,310.982 282.316,310.984 282.702 C 310.986 282.969,311.774 284.408,312.735 285.900 C 313.697 287.391,314.594 288.966,314.729 289.398 C 314.863 289.831,315.096 290.272,315.246 290.379 C 315.610 290.638,318.367 294.991,318.367 295.306 C 318.367 295.442,318.805 296.127,319.339 296.828 C 319.874 297.528,320.311 298.187,320.311 298.291 C 320.311 298.396,321.997 301.250,324.058 304.634 C 326.119 308.018,328.135 311.368,328.537 312.079 C 328.940 312.789,329.594 313.839,329.990 314.411 C 330.386 314.984,331.628 317.026,332.750 318.950 C 333.872 320.875,335.643 323.795,336.685 325.440 C 337.728 327.085,338.581 328.541,338.581 328.674 C 338.581 328.808,339.102 329.675,339.739 330.600 C 340.376 331.526,341.424 333.299,342.068 334.540 L 343.239 336.797 342.173 337.918 C 341.587 338.535,340.583 339.310,339.942 339.642 C 339.300 339.973,338.688 340.369,338.581 340.522 C 338.474 340.674,336.836 341.918,334.940 343.286 C 333.044 344.653,331.011 346.122,330.423 346.550 C 329.835 346.978,327.450 348.685,325.124 350.344 C 322.798 352.002,320.107 353.965,319.145 354.706 C 317.368 356.073,304.573 365.354,299.401 369.027 C 297.842 370.134,295.747 371.696,294.744 372.498 C 293.741 373.299,292.778 373.955,292.605 373.955 C 292.432 373.955,291.904 374.324,291.432 374.775 C 290.960 375.225,289.878 376.040,289.027 376.585 C 288.177 377.130,287.245 377.811,286.957 378.099 C 282.890 382.167,281.970 381.853,275.826 374.299 C 275.116 373.426,271.166 368.845,264.934 361.666 C 263.428 359.931,261.409 357.582,260.447 356.446 C 259.485 355.310,257.321 352.794,255.638 350.854 C 253.956 348.914,252.205 346.890,251.749 346.356 C 251.292 345.821,249.349 343.547,247.430 341.302 C 245.512 339.057,242.094 335.121,239.835 332.556 C 237.577 329.990,235.474 327.522,235.163 327.071 C 234.851 326.619,233.810 325.383,232.847 324.324 C 231.885 323.265,230.224 321.369,229.155 320.111 C 228.086 318.853,225.855 316.272,224.198 314.376 C 222.155 312.037,221.186 310.615,221.186 309.952 C 221.186 308.886,225.658 299.725,227.454 297.112 C 228.069 296.218,228.571 295.372,228.571 295.231 C 228.571 294.887,233.976 286.721,235.692 284.473 C 236.447 283.484,236.961 282.572,236.835 282.445 C 236.708 282.319,229.506 282.215,220.829 282.214 L 205.053 282.212 200.777 286.616 C 198.426 289.037,195.102 292.576,193.392 294.478 C 191.681 296.381,189.932 298.301,189.504 298.746 C 189.077 299.191,187.940 300.493,186.978 301.640 C 186.016 302.786,184.166 304.964,182.868 306.478 C 181.569 307.993,180.170 309.651,179.758 310.162 C 179.346 310.674,178.571 311.636,178.036 312.300 C 176.442 314.279,174.841 316.378,171.480 320.894 C 169.731 323.246,167.951 325.581,167.527 326.083 C 167.102 326.585,166.107 327.984,165.315 329.193 C 164.523 330.401,163.775 331.477,163.653 331.584 C 163.404 331.803,156.677 341.730,156.074 342.770 C 155.860 343.139,155.578 343.528,155.446 343.635 C 155.314 343.741,155.094 344.192,154.956 344.635 C 154.817 345.078,154.375 345.795,153.973 346.227 C 153.570 346.658,152.952 347.571,152.598 348.255 C 152.245 348.939,151.176 350.702,150.224 352.174 C 149.273 353.645,148.494 354.958,148.494 355.092 C 148.494 355.225,147.881 356.291,147.133 357.461 C 146.385 358.630,145.773 359.744,145.773 359.936 C 145.773 360.128,145.641 360.343,145.481 360.415 C 145.321 360.486,144.878 361.156,144.498 361.905 C 144.118 362.653,143.268 364.227,142.608 365.403 C 141.313 367.713,136.771 376.333,135.582 378.736 C 134.536 380.852,133.975 380.895,131.377 379.063 C 130.122 378.178,128.986 377.454,128.852 377.454 C 128.719 377.454,127.355 376.608,125.821 375.575 C 122.542 373.365,120.163 371.831,114.869 368.513 C 112.731 367.173,110.544 365.757,110.010 365.366 C 109.475 364.975,108.251 364.182,107.289 363.604 C 105.725 362.664,103.706 361.371,93.878 355.012 C 92.381 354.044,90.159 352.575,88.940 351.747 C 87.721 350.920,86.643 350.243,86.543 350.243 C 86.444 350.243,85.080 349.394,83.512 348.356 C 81.944 347.319,78.649 345.189,76.190 343.624 C 73.732 342.059,71.662 340.634,71.591 340.458 C 71.519 340.281,71.310 340.136,71.125 340.136 C 70.940 340.136,69.074 339.061,66.979 337.746 C 63.037 335.274,62.119 334.675,57.051 331.272 C 55.397 330.161,53.938 329.252,53.809 329.252 C 53.173 329.252,50.550 327.035,50.543 326.492 C 50.534 325.850,53.930 319.373,55.238 317.535 C 55.644 316.965,55.977 316.331,55.977 316.126 C 55.977 315.922,56.441 315.074,57.009 314.243 C 57.577 313.411,58.564 311.769,59.202 310.593 C 59.840 309.417,60.584 308.192,60.855 307.872 C 61.126 307.551,61.774 306.501,62.295 305.539 C 63.758 302.839,68.120 296.031,68.482 295.886 C 68.659 295.815,68.805 295.600,68.805 295.410 C 68.805 295.219,70.073 293.203,71.623 290.929 C 76.082 284.388,76.968 283.008,76.968 282.599 C 76.968 282.350,63.518 282.216,38.484 282.216 L 0.000 282.216 0.000 335.471 " stroke="none" fill="#fbfcfc" fill-rule="evenodd"></path><path id="path3" d="M162.921 13.570 C 162.609 13.767,162.316 14.790,162.227 15.994 C 162.141 17.139,161.823 20.962,161.520 24.490 C 161.217 28.017,160.781 33.353,160.551 36.346 C 160.016 43.322,159.451 50.090,158.994 55.005 C 158.795 57.143,158.439 61.254,158.204 64.140 C 157.968 67.026,157.611 71.100,157.411 73.193 C 157.068 76.765,156.973 81.750,157.272 80.466 C 157.415 79.849,158.408 68.361,159.774 51.506 C 161.414 31.273,162.881 14.574,163.060 14.091 C 163.389 13.207,237.398 13.400,237.665 14.286 C 237.778 14.660,238.047 17.328,238.263 20.214 C 238.949 29.391,239.867 39.824,240.041 40.428 C 240.285 41.273,239.892 33.183,239.446 28.183 C 239.236 25.831,238.885 21.640,238.666 18.869 C 238.417 15.725,238.089 13.718,237.792 13.530 C 237.131 13.110,163.586 13.149,162.921 13.570 M240.319 43.926 C 240.309 45.102,240.438 46.939,240.604 48.008 L 240.907 49.951 240.925 47.813 C 240.935 46.638,240.806 44.801,240.640 43.732 L 240.337 41.788 240.319 43.926 M241.165 54.810 C 242.905 76.724,243.757 85.443,243.519 78.912 C 243.262 71.842,241.523 52.067,241.127 51.710 C 241.004 51.598,241.020 52.993,241.165 54.810 M156.477 85.140 C 156.320 86.962,156.262 88.886,156.349 89.416 C 156.436 89.946,156.648 88.689,156.820 86.623 C 156.992 84.557,157.050 82.633,156.948 82.347 C 156.847 82.061,156.635 83.318,156.477 85.140 M243.995 87.658 C 244.115 90.010,244.279 92.007,244.361 92.096 C 244.656 92.418,244.456 86.453,244.121 84.937 C 243.887 83.878,243.846 84.746,243.995 87.658 M155.763 94.072 C 155.632 95.248,155.252 99.446,154.918 103.401 C 154.585 107.357,154.139 112.342,153.927 114.480 C 153.716 116.618,153.572 119.592,153.607 121.088 C 153.675 123.968,153.694 123.845,154.334 116.229 C 155.214 105.751,155.519 102.253,155.945 97.749 C 156.188 95.175,156.300 92.813,156.194 92.501 C 156.088 92.189,155.894 92.896,155.763 94.072 M244.517 94.299 C 244.522 94.922,244.783 98.319,245.097 101.846 C 246.670 119.481,247.136 125.618,246.946 126.182 C 246.867 126.419,245.142 127.184,243.113 127.883 C 241.084 128.583,239.498 129.229,239.589 129.320 C 239.873 129.604,246.097 127.408,246.845 126.759 C 247.672 126.042,247.484 122.323,245.500 100.137 C 244.968 94.184,244.497 91.385,244.517 94.299 M369.174 109.504 C 369.918 109.648,370.438 110.932,373.205 119.461 C 377.781 133.561,378.796 136.499,378.940 136.066 C 379.055 135.721,378.155 132.849,373.762 119.534 C 373.057 117.396,372.096 114.422,371.627 112.925 C 370.633 109.749,370.267 109.213,369.146 109.285 C 368.333 109.337,368.333 109.341,369.174 109.504 M29.817 110.690 C 29.528 111.278,29.068 112.546,28.794 113.508 C 28.520 114.470,28.139 115.659,27.948 116.150 C 27.756 116.642,27.613 117.341,27.629 117.705 C 27.645 118.069,28.257 116.628,28.987 114.502 C 30.780 109.286,30.029 109.456,39.953 112.020 C 40.868 112.256,41.701 112.365,41.804 112.261 C 41.907 112.158,40.459 111.690,38.586 111.221 C 36.713 110.752,34.547 110.200,33.774 109.994 C 31.337 109.347,30.394 109.513,29.817 110.690 M361.516 110.077 C 360.340 110.272,358.066 110.635,356.463 110.885 C 354.859 111.135,353.868 111.406,354.260 111.487 C 354.832 111.605,361.032 110.842,367.347 109.876 C 367.881 109.794,367.269 109.726,365.986 109.725 C 364.704 109.724,362.692 109.882,361.516 110.077 M350.049 111.953 C 349.015 112.398,350.635 112.398,352.381 111.953 L 353.547 111.657 352.187 111.638 C 351.438 111.628,350.476 111.770,350.049 111.953 M43.149 112.731 C 43.683 112.902,44.470 113.047,44.898 113.053 L 45.675 113.065 44.898 112.731 C 44.470 112.547,43.683 112.402,43.149 112.408 L 42.177 112.420 43.149 112.731 M345.190 112.731 C 343.830 113.166,346.005 113.166,347.716 112.731 L 348.882 112.434 347.522 112.427 C 346.774 112.423,345.724 112.560,345.190 112.731 M45.870 113.268 C 45.870 113.350,47.488 113.793,49.466 114.253 C 55.468 115.648,55.994 115.772,61.224 117.014 C 64.004 117.674,67.328 118.457,68.610 118.754 C 71.838 119.501,79.034 121.216,81.761 121.890 C 84.175 122.485,85.007 122.584,84.654 122.231 C 84.411 121.988,77.832 120.287,74.830 119.691 C 71.707 119.071,70.058 118.694,65.112 117.470 C 50.385 113.825,45.870 112.839,45.870 113.268 M337.415 114.086 C 335.170 114.563,331.059 115.429,328.280 116.010 C 325.500 116.591,321.914 117.419,320.311 117.848 C 318.707 118.278,317.133 118.692,316.812 118.767 C 308.915 120.632,303.841 122.047,304.106 122.311 C 304.195 122.401,306.173 121.961,308.500 121.334 C 313.249 120.053,325.023 117.145,327.697 116.591 C 328.659 116.391,332.770 115.546,336.832 114.713 C 340.894 113.880,343.605 113.203,342.857 113.209 C 342.109 113.214,339.660 113.609,337.415 114.086 M26.885 119.382 C 26.694 119.893,26.147 121.623,25.669 123.226 C 25.191 124.830,24.661 126.492,24.490 126.919 C 24.320 127.347,23.567 129.621,22.816 131.973 C 22.065 134.325,20.550 139.017,19.449 142.400 C 18.348 145.783,17.506 148.728,17.578 148.945 C 17.651 149.162,18.800 145.957,20.132 141.822 C 21.464 137.688,23.690 130.821,25.077 126.563 C 26.464 122.304,27.517 118.738,27.416 118.637 C 27.315 118.536,27.076 118.872,26.885 119.382 M85.909 122.838 C 87.395 123.314,88.589 123.314,87.852 122.838 C 87.532 122.630,86.744 122.476,86.103 122.494 C 84.960 122.526,84.956 122.533,85.909 122.838 M297.346 124.011 C 291.060 125.943,274.987 131.292,273.469 131.957 C 272.828 132.238,271.341 132.826,270.165 133.264 C 263.593 135.714,252.378 140.327,247.813 142.457 C 246.744 142.956,244.470 144.014,242.760 144.809 C 237.184 147.400,224.550 153.668,221.963 155.127 C 220.573 155.911,218.474 157.074,217.298 157.710 C 213.155 159.954,210.470 161.475,208.059 162.945 C 206.719 163.763,205.530 164.431,205.416 164.431 C 204.924 164.431,192.173 172.691,180.238 180.742 C 179.025 181.560,173.090 185.784,171.040 187.289 C 165.313 191.491,152.827 201.389,148.657 205.031 C 146.930 206.540,144.306 208.801,142.826 210.055 C 133.952 217.578,114.871 236.556,107.031 245.658 C 106.211 246.611,104.140 248.992,102.430 250.951 C 100.719 252.909,98.985 254.928,98.577 255.438 C 98.168 255.948,97.011 257.328,96.006 258.503 C 95.000 259.679,92.218 263.178,89.822 266.278 C 87.426 269.378,85.036 272.465,84.510 273.138 C 82.712 275.439,77.023 283.575,76.395 284.742 L 75.768 285.909 76.544 284.937 C 76.971 284.402,78.947 281.687,80.935 278.902 C 109.714 238.581,149.465 200.805,191.837 173.511 C 200.429 167.976,215.326 158.989,215.909 158.989 C 215.962 158.989,218.072 157.850,220.597 156.457 C 229.015 151.815,239.726 146.588,252.672 140.805 C 263.529 135.955,284.106 128.484,298.348 124.219 C 303.471 122.685,303.947 122.511,303.013 122.509 C 302.585 122.509,300.035 123.185,297.346 124.011 M93.683 124.570 C 96.569 125.302,99.718 126.078,100.680 126.295 C 101.642 126.512,104.704 127.234,107.483 127.900 C 110.262 128.565,113.586 129.350,114.869 129.644 C 116.152 129.937,119.432 130.713,122.159 131.367 C 127.060 132.542,128.208 132.743,127.823 132.358 C 127.593 132.129,123.371 131.085,115.938 129.422 C 114.922 129.194,113.479 128.841,112.731 128.637 C 108.954 127.608,90.977 123.477,89.796 123.367 C 89.048 123.297,90.797 123.838,93.683 124.570 M153.051 125.710 C 152.896 126.756,152.794 128.767,152.823 130.181 C 152.875 132.661,152.888 132.622,153.215 129.057 C 153.592 124.940,153.486 122.766,153.051 125.710 M237.318 129.839 C 236.890 130.026,233.392 131.341,229.543 132.760 C 220.462 136.109,211.529 139.584,206.414 141.756 C 162.692 160.323,125.597 183.981,98.024 210.881 C 91.772 216.981,92.370 216.795,86.880 214.352 C 84.329 213.216,79.999 211.467,79.739 211.467 C 78.985 211.467,80.850 212.415,84.299 213.784 C 86.514 214.663,89.000 215.726,89.823 216.146 C 91.986 217.249,91.987 217.249,96.025 213.314 C 103.802 205.734,114.783 196.276,125.022 188.338 C 126.962 186.834,135.673 180.621,138.192 178.944 C 139.261 178.232,140.573 177.353,141.108 176.990 C 141.642 176.626,143.217 175.607,144.606 174.724 C 145.996 173.841,148.399 172.301,149.947 171.302 C 151.494 170.303,152.839 169.485,152.935 169.485 C 153.031 169.485,155.416 168.086,158.236 166.375 C 161.055 164.665,163.412 163.265,163.473 163.265 C 163.534 163.265,164.781 162.593,166.243 161.772 C 167.705 160.951,170.126 159.605,171.623 158.781 C 174.604 157.140,191.135 148.882,191.439 148.882 C 191.543 148.882,193.074 148.204,194.842 147.375 C 199.196 145.333,203.690 143.341,205.442 142.678 C 205.870 142.516,207.532 141.820,209.135 141.133 C 212.282 139.783,220.256 136.679,225.267 134.853 C 226.978 134.230,228.727 133.555,229.155 133.353 C 229.582 133.152,231.594 132.432,233.625 131.754 C 237.441 130.481,239.697 129.469,238.678 129.488 C 238.358 129.494,237.745 129.652,237.318 129.839 M131.584 133.509 C 139.072 135.393,142.347 136.111,142.547 135.911 C 142.661 135.797,142.253 135.592,141.640 135.456 C 141.026 135.320,139.650 134.985,138.581 134.712 C 137.512 134.438,135.588 133.997,134.305 133.732 C 133.022 133.467,131.466 133.093,130.846 132.903 C 130.226 132.712,129.351 132.572,128.902 132.592 C 128.453 132.612,129.660 133.024,131.584 133.509 M152.187 135.277 C 151.756 137.647,151.836 137.611,148.105 137.083 L 146.356 136.836 148.299 137.409 C 152.240 138.573,152.982 138.109,152.700 134.657 C 152.577 133.154,152.571 133.160,152.187 135.277 M144.023 136.443 C 144.451 136.627,145.151 136.777,145.578 136.777 L 146.356 136.777 145.578 136.443 C 145.151 136.259,144.451 136.109,144.023 136.109 L 143.246 136.109 144.023 136.443 M379.021 137.221 C 379.021 137.541,379.190 138.066,379.397 138.387 C 379.732 138.905,379.774 138.905,379.774 138.387 C 379.774 138.066,379.605 137.541,379.397 137.221 C 379.063 136.702,379.021 136.702,379.021 137.221 M379.795 139.456 C 379.814 140.075,383.220 149.826,383.251 149.352 C 383.306 148.532,380.251 139.164,379.928 139.164 C 379.850 139.164,379.790 139.295,379.795 139.456 M17.008 149.926 C 16.913 150.100,16.344 151.817,15.744 153.741 C 15.145 155.666,13.908 159.514,12.996 162.293 C 8.467 176.094,7.351 179.681,7.472 180.044 C 7.544 180.261,8.898 176.443,10.480 171.560 C 12.062 166.677,14.296 159.819,15.444 156.320 C 17.189 150.997,17.810 148.460,17.008 149.926 M383.285 150.123 C 383.285 150.250,383.963 152.428,384.793 154.963 C 385.622 157.498,387.057 161.915,387.982 164.778 C 388.906 167.641,389.722 169.803,389.796 169.582 C 389.870 169.361,389.068 166.581,388.015 163.404 C 386.961 160.228,385.626 156.054,385.047 154.130 C 384.167 151.208,383.285 149.201,383.285 150.123 M389.902 170.554 C 389.906 170.714,390.606 172.945,391.456 175.510 C 392.306 178.076,393.001 180.293,393.002 180.436 C 393.003 180.785,391.140 181.336,387.366 182.103 C 381.453 183.305,368.441 186.527,368.124 186.868 C 367.811 187.205,369.889 186.772,375.899 185.248 C 378.999 184.462,383.635 183.390,386.200 182.866 C 394.221 181.228,393.884 181.520,392.574 177.341 C 390.908 172.028,389.867 169.383,389.902 170.554 M7.758 181.322 C 8.020 181.636,8.611 182.013,9.073 182.159 C 9.535 182.304,12.344 183.454,15.316 184.713 C 18.288 185.973,20.884 186.949,21.084 186.882 C 21.285 186.815,20.427 186.343,19.179 185.833 C 17.931 185.324,16.035 184.517,14.966 184.040 C 9.637 181.666,7.318 180.791,7.758 181.322 M21.769 187.156 C 21.769 187.384,26.753 189.699,27.243 189.699 C 27.445 189.699,27.914 189.859,28.285 190.056 C 29.281 190.582,32.469 191.970,34.736 192.863 C 35.828 193.294,37.686 194.089,38.866 194.631 C 40.046 195.173,42.235 196.104,43.732 196.700 C 45.228 197.297,47.923 198.420,49.720 199.196 C 51.517 199.973,53.167 200.548,53.386 200.475 C 53.606 200.402,52.748 199.928,51.480 199.423 C 50.211 198.918,48.299 198.113,47.230 197.634 C 46.161 197.155,43.188 195.892,40.622 194.827 C 34.902 192.451,26.504 188.907,23.972 187.799 C 21.993 186.934,21.769 186.868,21.769 187.156 M365.986 187.366 L 365.209 187.700 365.986 187.722 C 366.414 187.734,367.026 187.574,367.347 187.366 C 368.120 186.867,367.149 186.867,365.986 187.366 M361.322 188.566 C 360.039 188.982,355.403 190.481,351.020 191.897 C 339.629 195.578,326.085 200.690,318.047 204.343 C 316.482 205.054,315.140 205.637,315.065 205.637 C 314.868 205.637,307.697 209.028,302.041 211.796 C 254.452 235.086,210.841 270.159,177.021 312.342 C 170.698 320.229,159.330 335.860,159.917 335.860 C 160.032 335.860,160.865 334.767,161.767 333.431 C 162.669 332.094,163.871 330.389,164.439 329.640 C 165.006 328.892,166.676 326.618,168.151 324.587 C 179.718 308.648,193.878 292.393,207.597 279.300 C 216.692 270.621,218.394 269.059,224.265 264.003 C 236.319 253.623,248.774 244.126,261.030 235.969 C 263.382 234.404,265.783 232.797,266.365 232.399 C 266.947 232.000,268.259 231.174,269.280 230.564 C 270.301 229.953,273.040 228.293,275.366 226.875 C 277.692 225.456,279.663 224.295,279.747 224.295 C 279.830 224.295,280.612 223.845,281.485 223.294 C 284.921 221.125,297.187 214.632,304.783 210.962 C 310.973 207.971,318.992 204.355,322.507 202.969 C 323.598 202.539,325.255 201.844,326.191 201.425 C 330.424 199.526,343.373 194.784,350.243 192.615 C 352.702 191.839,355.063 191.060,355.491 190.884 C 355.918 190.709,356.968 190.374,357.823 190.140 C 362.543 188.850,365.015 188.091,365.015 187.933 C 365.015 187.583,363.616 187.823,361.322 188.566 M54.033 200.766 C 54.033 200.976,57.751 202.713,60.058 203.582 C 60.914 203.904,62.378 204.509,63.314 204.927 C 66.325 206.271,68.901 207.224,69.069 207.056 C 69.160 206.966,67.256 206.065,64.840 205.054 C 62.424 204.043,59.083 202.624,57.416 201.900 C 54.289 200.542,54.033 200.456,54.033 200.766 M70.943 208.048 C 72.904 209.085,79.011 211.498,79.199 211.310 C 79.351 211.158,70.095 207.180,69.654 207.209 C 69.508 207.218,70.087 207.596,70.943 208.048 M279.616 241.361 C 277.698 242.623,275.880 243.897,275.576 244.192 C 275.273 244.487,274.412 245.153,273.664 245.671 C 266.848 250.389,252.238 264.320,245.006 272.997 C 239.084 280.102,230.562 292.158,227.842 297.279 C 226.649 299.526,227.977 297.698,230.840 293.155 C 239.963 278.674,253.018 263.539,265.759 252.672 C 273.479 246.088,282.048 239.845,283.365 239.845 C 283.938 239.845,292.729 254.027,308.003 279.590 C 310.142 283.170,311.975 286.017,312.075 285.916 C 312.176 285.816,312.082 285.510,311.866 285.238 C 311.651 284.965,311.035 283.955,310.498 282.993 C 308.593 279.577,306.800 276.534,304.660 273.081 C 303.467 271.156,300.649 266.521,298.397 262.779 C 296.145 259.038,292.963 253.790,291.326 251.118 C 289.688 248.445,288.000 245.646,287.573 244.898 C 283.718 238.143,284.190 238.353,279.616 241.361 M312.601 287.269 C 312.927 287.804,315.169 291.525,317.584 295.540 C 319.999 299.554,322.043 302.771,322.126 302.688 C 322.323 302.490,313.377 287.638,312.604 286.880 C 312.071 286.357,312.070 286.397,312.601 287.269 M72.214 290.865 C 69.283 295.112,69.083 295.432,69.356 295.432 C 69.471 295.432,70.797 293.596,72.303 291.351 C 73.809 289.106,74.964 287.269,74.869 287.269 C 74.773 287.269,73.579 288.887,72.214 290.865 M65.979 300.389 C 62.825 305.316,56.134 316.551,54.823 319.120 C 53.521 321.673,54.227 320.930,55.815 318.076 C 58.016 314.120,63.724 304.612,66.172 300.822 C 68.522 297.185,69.310 295.821,69.062 295.821 C 68.974 295.821,67.587 297.877,65.979 300.389 M225.850 300.680 C 225.163 301.882,224.688 302.952,224.795 303.059 C 224.902 303.166,225.532 302.251,226.196 301.026 C 227.766 298.127,227.477 297.838,225.850 300.680 M322.351 303.438 C 322.471 303.632,324.787 307.464,327.498 311.953 C 330.209 316.443,332.613 320.292,332.840 320.505 C 333.430 321.061,333.419 321.041,327.912 311.857 C 325.188 307.313,322.773 303.482,322.547 303.342 C 322.320 303.202,322.232 303.245,322.351 303.438 M222.586 307.311 C 221.176 310.390,220.948 309.916,227.502 317.514 C 230.763 321.294,233.868 324.903,234.402 325.535 C 234.937 326.166,235.999 327.392,236.763 328.259 C 237.528 329.126,240.856 332.983,244.160 336.832 C 249.349 342.875,265.613 361.774,268.079 364.626 C 268.541 365.160,270.905 367.891,273.332 370.693 C 275.760 373.496,278.620 376.854,279.689 378.156 C 282.360 381.409,281.141 381.938,295.627 371.241 C 297.551 369.820,301.261 367.132,303.872 365.269 C 306.482 363.405,308.748 361.667,308.906 361.407 C 309.064 361.146,308.590 361.385,307.852 361.937 C 307.115 362.489,303.887 364.830,300.680 367.138 C 297.473 369.447,294.062 371.919,293.100 372.631 C 286.421 377.575,282.739 380.161,282.369 380.168 C 282.133 380.172,279.495 377.332,276.508 373.858 C 273.520 370.384,267.083 362.906,262.203 357.240 C 243.798 335.873,234.787 325.407,228.474 318.066 C 224.893 313.900,221.965 310.297,221.967 310.057 C 221.969 309.817,222.410 308.677,222.947 307.524 C 223.484 306.370,223.850 305.353,223.761 305.264 C 223.671 305.174,223.142 306.095,222.586 307.311 M53.224 321.930 C 52.958 322.429,52.410 323.427,52.007 324.147 C 51.604 324.867,51.336 325.518,51.412 325.594 C 51.487 325.669,52.113 324.750,52.802 323.550 C 53.491 322.351,53.977 321.291,53.881 321.196 C 53.785 321.100,53.490 321.430,53.224 321.930 M333.231 321.283 C 334.442 323.565,342.468 336.619,342.468 336.307 C 342.468 335.839,334.084 321.886,333.440 321.283 C 333.163 321.024,333.094 321.024,333.231 321.283 M51.846 327.347 C 52.460 327.827,54.384 329.121,56.122 330.223 C 57.859 331.325,63.217 334.762,68.027 337.861 C 78.029 344.304,77.745 344.128,77.745 343.890 C 77.745 343.791,76.127 342.669,74.150 341.396 C 72.172 340.124,66.356 336.380,61.224 333.077 C 51.491 326.811,49.986 325.892,51.846 327.347 M157.934 338.484 C 154.888 342.859,148.679 352.964,149.037 352.964 C 149.137 352.964,150.487 350.909,152.037 348.397 C 153.588 345.884,155.842 342.342,157.048 340.525 C 159.637 336.620,159.863 336.249,159.652 336.249 C 159.563 336.249,158.790 337.255,157.934 338.484 M340.121 338.612 L 338.776 339.809 340.027 338.982 C 341.137 338.250,341.976 337.415,341.602 337.415 C 341.528 337.415,340.862 337.954,340.121 338.612 M334.305 342.708 C 330.452 345.489,328.190 347.341,329.640 346.527 C 330.611 345.982,338.581 340.082,338.581 339.909 C 338.581 339.629,338.472 339.700,334.305 342.708 M78.886 344.727 C 79.406 345.149,80.368 345.791,81.024 346.152 L 82.216 346.809 81.270 346.041 C 80.749 345.618,79.787 344.977,79.132 344.616 L 77.940 343.958 78.886 344.727 M82.410 346.829 C 82.410 347.081,84.079 348.181,101.263 359.252 C 112.450 366.459,115.101 368.103,114.480 367.452 C 114.123 367.077,100.698 358.350,89.018 350.899 C 86.346 349.194,83.766 347.542,83.285 347.227 C 82.804 346.913,82.410 346.734,82.410 346.829 M319.381 353.533 C 314.273 357.257,309.900 360.518,309.663 360.779 C 309.053 361.451,311.116 360.027,317.590 355.307 C 320.690 353.046,324.398 350.368,325.831 349.354 C 328.045 347.786,329.257 346.721,328.789 346.752 C 328.723 346.757,324.489 349.808,319.381 353.533 M148.394 353.618 C 148.296 353.793,147.737 354.767,147.152 355.782 C 146.566 356.798,146.177 357.629,146.285 357.629 C 146.600 357.629,148.947 353.676,148.749 353.479 C 148.652 353.381,148.492 353.444,148.394 353.618 M144.251 360.773 C 142.721 363.427,142.111 364.840,143.180 363.255 C 144.159 361.802,146.218 358.017,146.029 358.017 C 145.925 358.017,145.125 359.257,144.251 360.773 M140.998 366.667 C 139.123 370.057,138.617 371.103,139.071 370.651 C 139.602 370.122,142.782 364.237,142.537 364.237 C 142.429 364.237,141.736 365.330,140.998 366.667 M116.401 368.866 C 116.548 369.102,117.225 369.566,117.906 369.895 C 119.056 370.451,119.089 370.449,118.367 369.864 C 117.187 368.907,116.079 368.344,116.401 368.866 M119.339 370.564 C 119.339 370.803,129.335 377.396,132.468 379.223 C 133.808 380.004,134.878 379.755,135.181 378.592 C 135.278 378.220,135.144 378.261,134.773 378.717 C 133.936 379.746,133.838 379.703,126.837 375.199 C 119.108 370.227,119.339 370.370,119.339 370.564 M137.699 372.879 C 137.220 373.754,136.904 374.546,136.997 374.639 C 137.090 374.732,137.541 374.074,137.998 373.178 C 139.080 371.057,138.833 370.810,137.699 372.879 " stroke="none" fill="#84e7db" fill-rule="evenodd"></path><path id="path4" d="M163.117 13.920 C 163.010 14.093,162.824 15.624,162.703 17.321 C 162.431 21.157,162.757 20.683,163.187 16.618 C 163.503 13.635,163.494 13.309,163.117 13.920 M237.601 16.327 C 237.590 17.502,237.716 19.339,237.883 20.408 L 238.186 22.352 238.199 20.408 C 238.207 19.339,238.080 17.502,237.917 16.327 L 237.622 14.189 237.601 16.327 M161.783 27.988 C 161.502 31.516,161.121 35.889,160.936 37.707 C 160.201 44.935,159.663 52.361,159.838 52.885 C 159.939 53.189,160.228 51.079,160.480 48.196 C 160.928 43.079,161.228 39.655,162.130 29.349 C 162.374 26.569,162.510 23.683,162.433 22.935 C 162.356 22.187,162.064 24.461,161.783 27.988 M238.343 25.073 C 238.322 25.928,238.566 29.602,238.884 33.236 C 239.202 36.871,239.639 41.944,239.856 44.509 C 240.072 47.075,240.425 51.186,240.641 53.644 C 240.857 56.103,241.196 60.214,241.394 62.779 C 242.283 74.314,242.580 77.968,243.130 84.120 C 243.453 87.732,243.808 90.779,243.919 90.890 C 244.279 91.250,244.304 91.611,242.560 71.720 C 242.181 67.398,241.988 65.063,241.002 52.867 C 238.928 27.199,238.419 21.875,238.343 25.073 M159.182 57.999 C 159.034 59.783,158.982 61.675,159.067 62.205 C 159.153 62.735,159.365 61.366,159.538 59.162 C 159.712 56.959,159.763 55.066,159.653 54.956 C 159.543 54.846,159.331 56.215,159.182 57.999 M158.658 64.723 C 158.621 65.364,158.325 68.863,158.001 72.498 C 157.451 78.652,157.195 81.712,156.260 93.294 C 155.612 101.324,155.136 107.012,154.716 111.759 C 154.489 114.325,154.138 118.435,153.937 120.894 C 153.735 123.353,153.454 126.677,153.311 128.280 C 153.167 129.883,153.166 131.090,153.306 130.961 C 153.554 130.734,154.375 122.551,155.124 112.828 C 155.687 105.519,156.211 99.010,156.648 93.878 C 156.867 91.312,157.208 87.289,157.406 84.937 C 157.605 82.585,158.054 77.390,158.404 73.392 C 158.755 69.395,158.970 65.546,158.883 64.840 L 158.725 63.557 158.658 64.723 M244.166 95.076 C 244.192 96.769,244.352 98.678,244.522 99.320 C 244.695 99.976,244.737 98.702,244.618 96.404 C 244.363 91.531,244.102 90.762,244.166 95.076 M245.111 105.345 C 245.198 107.590,245.441 111.526,245.652 114.091 C 246.367 122.772,246.571 126.336,246.353 126.336 C 246.234 126.336,244.152 127.045,241.727 127.911 C 239.302 128.777,236.050 129.919,234.500 130.448 C 230.304 131.879,229.609 132.169,229.835 132.394 C 229.948 132.507,231.415 132.078,233.096 131.442 C 236.086 130.310,244.840 127.220,246.134 126.840 C 247.239 126.516,247.239 126.514,246.058 112.925 C 245.130 102.245,244.931 100.646,245.111 105.345 M367.347 109.876 C 366.812 109.957,363.751 110.381,360.544 110.818 C 347.076 112.651,328.179 116.169,322.060 117.983 C 319.950 118.609,321.454 118.501,324.393 117.817 C 333.120 115.783,351.158 112.446,358.212 111.560 C 360.136 111.319,362.774 110.958,364.075 110.760 C 365.375 110.561,367.213 110.398,368.160 110.398 L 369.881 110.398 371.015 114.111 C 371.639 116.153,372.323 117.931,372.535 118.062 C 372.748 118.194,372.830 118.054,372.718 117.751 C 372.606 117.449,371.950 115.496,371.259 113.411 C 369.915 109.353,370.038 109.464,367.347 109.876 M30.383 110.690 C 29.702 112.000,24.461 128.381,24.660 128.579 C 24.770 128.690,24.933 128.536,25.021 128.238 C 25.109 127.940,25.445 126.910,25.766 125.948 C 26.088 124.985,27.367 121.082,28.610 117.274 C 30.674 110.950,30.939 110.369,31.664 110.577 C 32.434 110.798,34.700 111.306,37.901 111.975 C 38.756 112.153,40.155 112.471,41.011 112.682 C 48.230 114.455,51.072 115.078,51.419 114.963 C 51.798 114.836,49.154 114.144,41.205 112.288 C 39.388 111.864,36.470 111.178,34.722 110.763 C 30.850 109.845,30.823 109.845,30.383 110.690 M58.503 116.826 C 62.138 117.748,65.549 118.501,66.084 118.498 C 66.618 118.496,64.694 117.909,61.808 117.194 C 58.921 116.479,55.814 115.707,54.902 115.479 C 53.990 115.250,52.941 115.083,52.570 115.106 C 52.199 115.130,54.869 115.904,58.503 116.826 M67.833 118.950 C 68.260 119.134,68.960 119.285,69.388 119.285 L 70.165 119.285 69.388 118.950 C 68.960 118.767,68.260 118.616,67.833 118.616 L 67.055 118.616 67.833 118.950 M317.784 118.950 L 317.007 119.285 317.784 119.306 C 318.212 119.318,318.824 119.158,319.145 118.950 C 319.918 118.451,318.946 118.451,317.784 118.950 M372.801 119.339 C 372.801 119.660,372.971 120.185,373.178 120.505 C 373.513 121.024,373.555 121.024,373.555 120.505 C 373.555 120.185,373.385 119.660,373.178 119.339 C 372.843 118.821,372.801 118.821,372.801 119.339 M71.137 119.686 C 71.458 119.864,73.120 120.314,74.830 120.686 C 76.540 121.058,78.447 121.519,79.067 121.711 C 79.687 121.903,80.649 122.040,81.205 122.015 C 81.998 121.980,82.048 121.931,81.438 121.791 C 81.011 121.693,78.571 121.101,76.016 120.476 C 71.232 119.305,70.127 119.126,71.137 119.686 M314.286 119.766 C 313.644 119.957,310.496 120.820,307.289 121.683 C 295.800 124.774,271.165 132.871,273.081 132.925 C 273.294 132.931,275.481 132.227,277.940 131.361 C 289.890 127.149,300.042 124.010,310.909 121.164 C 313.755 120.419,316.189 119.703,316.318 119.574 C 316.637 119.256,315.702 119.344,314.286 119.766 M373.565 121.510 C 373.560 122.298,376.060 129.545,376.196 129.137 C 376.277 128.896,375.778 127.074,375.088 125.088 C 373.827 121.459,373.568 120.852,373.565 121.510 M82.799 122.444 C 83.120 122.654,83.805 122.828,84.321 122.832 C 85.569 122.840,85.253 122.619,83.576 122.311 C 82.619 122.135,82.389 122.175,82.799 122.444 M85.555 122.990 C 85.786 123.233,87.381 123.638,97.182 125.943 C 100.068 126.622,103.875 127.526,105.642 127.953 C 107.410 128.380,109.055 128.663,109.300 128.581 C 109.689 128.452,108.417 128.113,100.875 126.339 C 100.019 126.138,96.783 125.371,93.683 124.636 C 86.615 122.958,85.267 122.685,85.555 122.990 M110.787 129.057 C 111.108 129.265,111.808 129.419,112.342 129.401 L 113.314 129.369 112.342 129.057 C 110.844 128.578,110.045 128.578,110.787 129.057 M21.848 136.506 C 20.515 140.641,18.295 147.512,16.914 151.776 C 15.533 156.040,14.483 159.607,14.579 159.703 C 14.675 159.799,14.831 159.634,14.927 159.336 C 15.926 156.219,17.465 151.470,18.504 148.299 C 23.235 133.862,24.522 129.737,24.405 129.387 C 24.332 129.168,23.182 132.372,21.848 136.506 M114.286 129.761 C 114.606 129.964,116.268 130.432,117.979 130.802 C 119.689 131.171,121.490 131.629,121.981 131.820 C 122.472 132.011,123.347 132.148,123.925 132.124 C 124.908 132.084,121.536 131.103,117.396 130.224 C 116.433 130.020,115.209 129.749,114.674 129.623 C 113.971 129.456,113.864 129.494,114.286 129.761 M125.559 132.536 C 125.879 132.754,126.652 132.935,127.276 132.939 C 128.769 132.946,128.459 132.722,126.531 132.399 C 125.416 132.212,125.141 132.251,125.559 132.536 M377.070 132.459 C 377.080 133.012,378.872 138.380,379.135 138.642 C 379.279 138.787,379.397 139.228,379.397 139.623 C 379.397 140.018,379.557 140.645,379.752 141.016 C 379.946 141.387,380.578 143.265,381.154 145.190 C 381.731 147.114,382.385 148.863,382.607 149.077 C 382.881 149.341,382.946 149.278,382.810 148.882 C 382.699 148.562,381.438 144.670,380.006 140.233 C 377.715 133.134,377.051 131.374,377.070 132.459 M152.846 134.565 C 152.709 138.531,152.688 138.539,146.250 137.004 C 143.956 136.457,141.030 135.766,139.747 135.469 C 138.465 135.172,135.511 134.476,133.185 133.923 C 130.859 133.370,128.873 132.999,128.773 133.100 C 128.584 133.288,130.146 133.749,133.528 134.503 C 137.422 135.371,138.701 135.672,145.309 137.270 C 153.355 139.217,153.274 139.240,153.059 135.049 C 152.925 132.424,152.920 132.413,152.846 134.565 M227.600 132.937 C 227.172 133.117,225.372 133.828,223.600 134.515 C 221.828 135.203,220.439 135.827,220.515 135.902 C 220.590 135.977,221.865 135.588,223.348 135.039 C 224.831 134.489,226.788 133.777,227.697 133.455 C 228.605 133.134,229.349 132.801,229.349 132.714 C 229.349 132.464,228.448 132.579,227.600 132.937 M263.270 136.438 C 258.516 138.352,253.793 140.293,252.774 140.752 C 238.418 147.221,229.079 151.780,220.597 156.457 C 218.072 157.850,215.962 158.989,215.909 158.989 C 215.742 158.989,204.442 165.572,201.361 167.464 C 151.203 198.259,108.204 238.954,75.594 286.491 C 73.541 289.485,72.004 291.932,72.179 291.930 C 72.354 291.927,73.135 290.921,73.914 289.694 C 76.711 285.290,78.707 282.495,85.744 273.134 C 88.293 269.742,90.719 266.506,91.135 265.942 C 91.550 265.379,92.425 264.289,93.078 263.521 C 93.732 262.752,94.529 261.790,94.850 261.383 C 96.534 259.246,99.221 256.024,101.649 253.230 C 103.147 251.506,105.248 249.057,106.317 247.788 C 115.963 236.339,140.606 212.425,152.759 202.721 C 153.563 202.080,156.299 199.887,158.840 197.848 C 161.381 195.809,163.919 193.797,164.481 193.378 C 165.043 192.958,167.492 191.113,169.923 189.278 C 180.040 181.644,196.808 170.449,205.248 165.695 C 206.210 165.153,207.434 164.416,207.969 164.059 C 208.503 163.701,210.777 162.388,213.022 161.141 C 215.267 159.893,217.716 158.524,218.465 158.097 C 222.769 155.641,236.291 148.766,241.788 146.238 C 243.178 145.599,245.671 144.445,247.329 143.675 C 248.987 142.904,250.437 142.274,250.552 142.274 C 250.667 142.274,251.868 141.757,253.221 141.124 C 254.574 140.491,257.060 139.426,258.744 138.757 C 260.429 138.088,262.507 137.222,263.362 136.833 C 264.218 136.444,266.142 135.691,267.638 135.161 C 271.524 133.783,272.498 133.380,272.498 133.149 C 272.498 132.753,271.837 132.989,263.270 136.438 M212.439 138.793 C 204.095 142.194,203.941 142.263,204.177 142.499 C 204.285 142.607,205.401 142.235,206.657 141.672 C 207.913 141.108,211.385 139.692,214.373 138.523 C 217.360 137.355,219.882 136.321,219.977 136.227 C 220.566 135.637,218.236 136.431,212.439 138.793 M202.138 143.043 C 201.817 143.227,200.680 143.758,199.611 144.224 C 195.883 145.848,194.908 146.292,189.116 149.004 C 182.512 152.095,174.537 156.164,173.955 156.739 C 173.741 156.950,176.568 155.626,180.236 153.796 C 187.742 150.052,190.717 148.650,198.251 145.308 C 201.137 144.028,203.571 142.909,203.661 142.821 C 203.962 142.526,202.725 142.706,202.138 143.043 M382.923 150.021 C 382.893 150.635,383.108 151.355,384.838 156.438 C 385.949 159.700,386.416 160.759,386.378 159.929 C 386.346 159.221,382.949 149.480,382.923 150.021 M167.541 160.030 C 164.655 161.660,161.244 163.589,159.961 164.316 C 158.678 165.043,157.191 165.997,156.657 166.436 C 155.537 167.357,156.051 167.087,162.293 163.475 C 164.218 162.362,167.366 160.611,169.291 159.583 C 172.850 157.682,173.837 157.037,173.158 157.056 C 172.955 157.061,170.428 158.399,167.541 160.030 M10.901 170.258 C 7.034 182.216,7.054 180.654,10.751 182.217 C 12.428 182.927,14.325 183.749,14.966 184.045 C 15.607 184.341,18.231 185.453,20.797 186.517 C 23.362 187.581,27.823 189.450,30.709 190.671 C 33.596 191.891,38.056 193.762,40.622 194.827 C 43.188 195.893,46.000 197.090,46.873 197.488 C 47.745 197.885,49.320 198.555,50.371 198.975 C 51.423 199.396,52.940 200.020,53.741 200.361 C 54.543 200.703,55.199 200.898,55.199 200.794 C 55.199 200.503,51.914 199.049,41.983 194.943 C 36.958 192.867,31.885 190.731,30.709 190.198 C 29.534 189.664,27.259 188.706,25.656 188.068 C 24.052 187.430,21.961 186.553,21.008 186.119 C 19.392 185.383,14.413 183.281,9.913 181.435 L 7.969 180.637 10.343 173.409 C 13.828 162.799,14.515 160.547,14.326 160.358 C 14.233 160.265,12.691 164.720,10.901 170.258 M386.428 161.127 C 386.416 161.555,386.576 162.167,386.783 162.488 C 387.283 163.261,387.283 162.289,386.783 161.127 L 386.449 160.350 386.428 161.127 M387.172 163.500 C 387.172 164.139,392.718 180.784,392.877 180.625 C 392.979 180.523,391.812 176.575,390.284 171.852 C 387.865 164.374,387.172 162.514,387.172 163.500 M152.703 168.631 C 150.707 169.932,149.267 171.072,150.243 170.580 C 151.253 170.070,155.491 167.415,155.491 167.292 C 155.491 166.942,154.745 167.301,152.703 168.631 M145.578 173.001 C 137.639 178.184,123.769 187.983,120.700 190.578 C 120.272 190.939,119.286 191.720,118.509 192.313 C 113.396 196.217,103.303 205.078,96.472 211.662 C 91.740 216.223,92.147 216.005,89.938 215.161 C 88.979 214.795,88.113 214.576,88.014 214.674 C 87.711 214.978,91.284 216.197,92.086 216.063 C 92.502 215.994,95.174 213.662,98.024 210.881 C 110.946 198.275,125.277 186.894,142.108 175.871 C 149.397 171.098,150.060 170.629,149.446 170.684 C 149.243 170.702,147.502 171.744,145.578 173.001 M389.310 181.169 C 388.669 181.351,385.627 182.069,382.551 182.764 C 379.475 183.458,377.163 184.095,377.413 184.178 C 377.664 184.262,379.306 183.970,381.062 183.530 C 382.819 183.090,386.000 182.365,388.131 181.918 C 390.262 181.472,392.084 181.029,392.180 180.933 C 392.460 180.653,390.582 180.807,389.310 181.169 M372.012 185.269 C 369.981 185.798,367.794 186.387,367.153 186.577 C 366.511 186.768,364.674 187.271,363.071 187.696 C 358.500 188.905,355.979 189.734,356.199 189.954 C 356.311 190.065,358.121 189.634,360.222 188.995 C 362.323 188.357,366.492 187.186,369.485 186.394 C 375.735 184.739,377.105 184.320,376.288 184.313 C 375.967 184.310,374.043 184.740,372.012 185.269 M354.130 190.476 C 353.612 190.811,353.612 190.853,354.130 190.853 C 354.451 190.853,354.976 190.683,355.296 190.476 C 355.815 190.141,355.815 190.099,355.296 190.099 C 354.976 190.099,354.451 190.269,354.130 190.476 M351.215 191.245 C 350.787 191.425,348.814 192.137,346.829 192.826 C 344.844 193.515,343.297 194.156,343.391 194.249 C 343.540 194.399,352.909 191.330,353.320 190.996 C 353.649 190.730,351.966 190.928,351.215 191.245 M338.776 195.546 C 337.065 196.176,335.316 196.859,334.888 197.063 C 334.461 197.267,333.324 197.692,332.362 198.007 C 330.710 198.549,329.302 199.105,326.142 200.465 C 324.020 201.379,323.361 201.640,321.367 202.360 C 320.345 202.729,319.398 203.209,319.263 203.428 C 319.123 203.655,319.253 203.734,319.567 203.613 C 319.869 203.496,323.178 202.165,326.919 200.655 C 330.661 199.145,335.821 197.118,338.387 196.151 C 340.952 195.184,342.789 194.395,342.468 194.397 C 342.148 194.399,340.486 194.917,338.776 195.546 M58.422 202.344 C 61.545 203.735,62.231 203.950,61.594 203.338 C 61.139 202.902,56.391 200.967,55.812 200.983 C 55.582 200.989,56.756 201.602,58.422 202.344 M66.084 205.520 C 68.185 206.490,74.778 209.292,81.989 212.282 C 84.002 213.117,85.732 213.717,85.834 213.615 C 86.029 213.421,82.605 211.856,81.984 211.856 C 81.785 211.856,81.318 211.696,80.947 211.499 C 79.956 210.975,76.767 209.586,74.521 208.701 C 73.443 208.276,71.846 207.606,70.974 207.211 C 67.881 205.813,64.548 204.471,64.249 204.502 C 64.082 204.520,64.908 204.978,66.084 205.520 M314.869 205.154 C 310.060 207.395,293.327 215.634,291.619 216.601 C 288.009 218.647,289.685 218.144,293.902 215.917 C 298.472 213.503,304.924 210.332,310.982 207.523 C 317.253 204.614,317.435 204.520,316.812 204.520 C 316.492 204.520,315.617 204.805,314.869 205.154 M285.714 219.860 C 283.897 220.835,281.535 222.170,280.466 222.829 C 279.397 223.487,277.736 224.456,276.774 224.982 C 275.811 225.509,274.150 226.510,273.081 227.208 C 272.012 227.905,269.476 229.503,267.447 230.759 C 259.976 235.380,245.548 245.526,238.347 251.222 C 209.054 274.393,183.405 301.266,163.645 329.489 C 162.038 331.784,156.756 339.629,156.476 340.136 C 155.570 341.778,157.373 339.330,161.346 333.528 C 192.935 287.390,237.932 246.497,286.200 220.060 C 287.857 219.153,289.213 218.335,289.213 218.243 C 289.213 217.984,289.218 217.982,285.714 219.860 M278.684 242.617 C 266.322 251.083,252.106 264.598,241.701 277.777 C 237.424 283.194,230.547 293.100,231.063 293.100 C 231.176 293.100,232.180 291.744,233.294 290.087 C 236.092 285.925,240.021 280.528,242.278 277.745 C 243.319 276.463,244.383 275.151,244.643 274.830 C 254.660 262.461,278.611 241.037,282.992 240.527 C 283.836 240.429,285.557 242.857,289.120 249.174 C 289.662 250.136,290.605 251.654,291.214 252.548 C 291.824 253.442,292.323 254.282,292.323 254.416 C 292.323 254.641,294.506 258.203,297.626 263.065 C 298.344 264.184,298.931 265.198,298.931 265.319 C 298.931 265.439,299.570 266.535,300.351 267.754 C 301.132 268.973,302.069 270.496,302.433 271.137 C 302.797 271.778,304.246 274.178,305.652 276.470 C 307.059 278.762,308.832 281.736,309.594 283.079 C 310.356 284.421,311.347 285.957,311.796 286.492 L 312.613 287.464 311.849 286.103 C 311.146 284.849,303.012 271.320,289.473 248.882 C 283.160 238.421,284.053 238.939,278.684 242.617 M312.536 287.862 C 312.536 288.181,315.694 293.100,315.898 293.100 C 316.121 293.100,316.119 293.095,314.291 290.087 C 312.920 287.832,312.536 287.345,312.536 287.862 M70.282 294.363 C 68.509 297.000,68.109 297.864,69.314 296.455 C 70.281 295.325,72.094 292.323,71.810 292.323 C 71.725 292.323,71.037 293.241,70.282 294.363 M228.987 296.064 C 228.099 297.480,227.449 298.715,227.541 298.808 C 227.634 298.901,228.369 297.873,229.175 296.524 C 230.988 293.488,230.988 293.489,230.776 293.489 C 230.680 293.489,229.875 294.648,228.987 296.064 M316.035 293.677 C 316.035 294.022,322.302 303.984,322.519 303.984 C 322.637 303.984,322.478 303.591,322.166 303.110 C 321.854 302.629,320.423 300.267,318.986 297.862 C 316.638 293.932,316.035 293.078,316.035 293.677 M65.583 301.749 C 61.773 307.755,56.777 316.221,53.828 321.672 C 53.018 323.168,52.121 324.738,51.834 325.159 C 51.547 325.581,51.313 326.193,51.314 326.520 C 51.316 326.863,51.532 326.703,51.827 326.142 C 52.108 325.607,52.825 324.295,53.421 323.226 C 54.016 322.157,55.130 320.146,55.895 318.756 C 57.467 315.903,65.055 303.139,66.065 301.652 C 67.271 299.875,68.482 297.765,68.295 297.765 C 68.194 297.765,66.974 299.558,65.583 301.749 M225.559 302.138 C 224.012 304.992,223.420 306.317,223.692 306.317 C 223.774 306.317,224.649 304.742,225.635 302.818 C 227.779 298.636,227.724 298.144,225.559 302.138 M322.643 304.577 C 322.643 304.896,325.801 309.815,326.005 309.815 C 326.228 309.815,326.225 309.810,324.398 306.803 C 323.027 304.547,322.643 304.060,322.643 304.577 M222.595 308.252 C 222.247 309.121,221.963 309.980,221.963 310.162 C 221.963 310.483,224.446 313.405,244.492 336.679 C 249.720 342.750,257.124 351.346,260.944 355.782 C 264.764 360.219,267.986 363.848,268.103 363.848 C 268.382 363.848,259.502 353.312,256.767 350.398 C 256.546 350.162,255.666 349.118,254.810 348.077 C 253.955 347.036,251.856 344.588,250.146 342.636 C 248.435 340.685,244.675 336.307,241.788 332.907 C 238.902 329.507,235.054 325.035,233.236 322.969 C 221.833 310.008,222.067 310.338,222.956 308.464 C 223.321 307.696,223.531 306.978,223.423 306.870 C 223.315 306.762,222.942 307.384,222.595 308.252 M326.151 310.279 C 326.139 310.626,329.283 315.646,329.512 315.646 C 329.741 315.646,327.688 311.999,326.831 310.884 C 326.461 310.403,326.155 310.131,326.151 310.279 M329.944 316.618 C 330.163 317.046,331.516 319.320,332.952 321.672 C 334.387 324.023,335.868 326.472,336.243 327.114 C 336.618 327.755,337.997 330.045,339.308 332.202 C 340.619 334.359,341.691 336.313,341.691 336.544 C 341.691 336.896,339.013 338.929,331.584 344.218 C 330.983 344.645,328.070 346.756,325.110 348.908 C 322.150 351.060,317.454 354.457,314.674 356.457 C 311.895 358.458,309.534 360.205,309.427 360.341 C 309.320 360.477,307.269 361.978,304.871 363.676 C 302.472 365.374,299.550 367.464,298.377 368.319 C 297.205 369.174,294.795 370.906,293.021 372.167 C 289.167 374.907,289.431 374.692,289.647 374.908 C 289.743 375.004,290.953 374.245,292.336 373.220 C 294.651 371.504,321.414 352.073,332.750 343.877 C 335.423 341.945,338.690 339.579,340.010 338.620 L 342.410 336.875 341.818 335.729 C 340.804 333.768,330.381 316.640,329.952 316.229 C 329.669 315.959,329.667 316.078,329.944 316.618 M52.303 327.266 C 52.932 327.857,57.143 330.453,57.143 330.250 C 57.143 329.995,52.604 326.919,52.227 326.919 C 52.066 326.919,52.100 327.076,52.303 327.266 M57.745 330.751 C 58.257 331.213,82.381 346.745,87.269 349.760 C 88.421 350.470,88.622 350.523,88.047 349.963 C 87.619 349.548,85.345 348.007,82.993 346.540 C 78.776 343.909,72.184 339.688,67.250 336.461 C 60.063 331.760,57.935 330.418,57.669 330.418 C 57.508 330.418,57.542 330.568,57.745 330.751 M154.695 342.690 C 154.022 343.667,153.556 344.551,153.659 344.653 C 153.761 344.756,154.389 343.956,155.053 342.877 C 156.559 340.429,156.332 340.310,154.695 342.690 M152.516 346.259 C 151.669 347.407,148.758 352.147,146.669 355.782 C 145.962 357.012,144.767 359.092,144.013 360.405 C 143.260 361.718,142.710 362.859,142.793 362.942 C 142.875 363.024,143.875 361.469,145.014 359.486 C 147.329 355.455,151.854 347.897,152.933 346.259 C 153.320 345.671,153.562 345.190,153.471 345.190 C 153.379 345.190,152.950 345.671,152.516 346.259 M89.232 350.963 C 89.809 351.481,120.382 371.143,124.095 373.384 C 127.696 375.557,123.795 372.713,119.202 369.816 C 114.789 367.033,110.499 364.283,103.984 360.060 C 102.488 359.090,100.389 357.734,99.320 357.047 C 98.251 356.360,95.577 354.636,93.378 353.215 C 89.796 350.901,88.192 350.029,89.232 350.963 M141.511 364.897 C 140.110 367.329,139.881 367.804,140.033 367.957 C 140.114 368.037,140.743 367.121,141.432 365.922 C 142.121 364.722,142.612 363.668,142.524 363.580 C 142.435 363.491,141.980 364.084,141.511 364.897 M275.085 372.206 C 278.865 376.589,282.127 380.175,282.334 380.175 C 282.787 380.175,288.775 375.906,289.129 375.330 C 289.418 374.861,287.435 376.077,286.297 377.067 C 285.870 377.439,284.774 378.228,283.862 378.820 L 282.204 379.897 280.946 378.403 C 280.255 377.580,277.852 374.798,275.607 372.219 C 273.362 369.640,270.943 366.789,270.230 365.884 C 269.517 364.978,268.772 364.237,268.574 364.237 C 268.376 364.237,271.306 367.823,275.085 372.206 M139.284 368.999 C 139.111 369.266,137.901 371.576,136.594 374.132 C 133.723 379.746,134.243 379.550,129.852 376.667 C 127.871 375.366,126.176 374.375,126.086 374.464 C 125.855 374.696,133.276 379.397,133.872 379.397 C 134.143 379.397,135.626 376.948,137.166 373.955 C 139.546 369.329,140.471 367.165,139.284 368.999 " stroke="none" fill="#4edcca" fill-rule="evenodd"></path></g></svg>